<svg width="37" height="37" viewBox="0 0 37 37" fill="none" xmlns="http://www.w3.org/2000/svg">
<path d="M18.4821 0.0609436C8.30569 0.0609436 0.0556641 8.31074 0.0556641 18.4872C0.0556641 28.6641 8.30569 36.9132 18.4821 36.9132C28.6597 36.9132 36.9088 28.6641 36.9088 18.4872C36.9088 8.3114 28.6599 0.0609436 18.4821 0.0609436ZM26.9324 26.6369C26.6023 27.1782 25.8938 27.3498 25.3525 27.0175C21.0262 24.3749 15.5798 23.7764 9.1658 25.2418C8.54772 25.3827 7.93163 24.9954 7.7908 24.3771C7.64932 23.7588 8.03504 23.1427 8.65466 23.0019C15.6738 21.3983 21.6946 22.0887 26.5517 25.057C27.093 25.3893 27.2646 26.0956 26.9324 26.6369ZM29.1877 21.6196C28.7719 22.2956 27.8873 22.509 27.2118 22.0931C22.2588 19.0487 14.7087 18.167 8.85027 19.9454C8.09049 20.1749 7.28802 19.7467 7.05742 18.9882C6.82859 18.2284 7.257 17.4275 8.01546 17.1964C14.7074 15.166 23.0267 16.1495 28.7147 19.6448C29.3902 20.0607 29.6036 20.945 29.1877 21.6196ZM29.3814 16.3951C23.4426 12.8677 13.6444 12.5434 7.97431 14.2643C7.0638 14.5404 6.10093 14.0264 5.825 13.1159C5.54908 12.2049 6.06264 11.2427 6.97381 10.9659C13.4827 8.99 24.3029 9.37176 31.1403 13.4308C31.9611 13.9168 32.2295 14.9745 31.7432 15.7924C31.2592 16.6114 30.1977 16.8814 29.3814 16.3951Z" fill="#57B65F"/>
</svg>
